<svg width="13" height="13" viewBox="0 0 13 13" fill="none" xmlns="http://www.w3.org/2000/svg">
    <path d="M8.9999 4.7L3.5499 10.15C3.45824 10.2417 3.34157 10.2875 3.1999 10.2875C3.05824 10.2875 2.94157 10.2417 2.8499 10.15C2.75824 10.0583 2.7124 9.94167 2.7124 9.8C2.7124 9.65833 2.75824 9.54167 2.8499 9.45L8.2999 4H5.4999C5.35824 4 5.23957 3.952 5.1439 3.856C5.04824 3.76 5.00024 3.64133 4.9999 3.5C4.99957 3.35867 5.04757 3.24 5.1439 3.144C5.24024 3.048 5.3589 3 5.4999 3H9.4999C9.64157 3 9.7604 3.048 9.8564 3.144C9.9524 3.24 10.0002 3.35867 9.9999 3.5V7.5C9.9999 7.64167 9.9519 7.7605 9.8559 7.8565C9.7599 7.9525 9.64124 8.00033 9.4999 8C9.35857 7.99967 9.2399 7.95167 9.1439 7.856C9.0479 7.76033 8.9999 7.64167 8.9999 7.5V4.7Z" fill="#7E7E7E"/>
</svg>